PathFileType	4	(X/Y/Z)	Patient4_TMGait_0pt6_02_right_47.trc.trc
DataRate	CameraRate	NumFrames	NumMarkers	Units	OrigDataRate	OrigDataStartFrame	OrigNumFrames
84.848484848485	84.848484848485	6	33	mm	84.848484848485	1	       141
Frame#	Time	Sacral			L.Shoulder			Chest			R.Shoulder			Neck			R.ASIS			L.ASIS			R.Thigh.Superior			R.Thigh.Lateral			R.Thigh.Inferior			R.Patella			L.Thigh.Superior			L.Thigh.Lateral			L.Thigh.Inferior			L.Patella			L.Shank.Superior			L.Shank.Lateral			L.Shank.Inferior			R.Shank.Superior			R.Shank.Lateral			R.Shank.Inferior			R.Heel			R.Midfoot.Superior			R.Midfoot.Lateral			R.Toe			L.Heel			L.Midfoot.Lateral			L.Midfoot.Superior			L.Toe			L.Elbow			L.Wrist			R.Elbow			R.Wrist			
		X1	Y1	Z1	X2	Y2	Z2	X3	Y3	Z3	X4	Y4	Z4	X5	Y5	Z5	X6	Y6	Z6	X7	Y7	Z7	X8	Y8	Z8	X9	Y9	Z9	X10	Y10	Z10	X11	Y11	Z11	X12	Y12	Z12	X13	Y13	Z13	X14	Y14	Z14	X15	Y15	Z15	X16	Y16	Z16	X17	Y17	Z17	X18	Y18	Z18	X19	Y19	Z19	X20	Y20	Z20	X21	Y21	Z21	X22	Y22	Z22	X23	Y23	Z23	X24	Y24	Z24	X25	Y25	Z25	X26	Y26	Z26	X27	Y27	Z27	X28	Y28	Z28	X29	Y29	Z29	X30	Y30	Z30	X31	Y31	Z31	X32	Y32	Z32	X33	Y33	Z33	

1	56.770000000000	824.712949169196	1011.158354714850	458.952973138678	1009.213127203127	1430.164922095128	267.864920547278	1110.334431484754	1363.445172032573	430.680848894385	1028.226616417893	1444.174521535641	601.452461523484	1005.732104858257	1496.546804186321	418.206763587578	1052.236121311247	943.963665312602	572.135096071812	1038.005862585791	966.820706197496	298.891122787948	1142.833819786210	785.362540210297	540.194119862953	1114.038399288056	661.694373775527	616.015768555005	1206.615144150312	629.258792551857	535.880633346146	1231.834495390405	512.818276211777	556.022161196587	1080.803169816240	754.420587090735	323.543406858013	986.769299880750	642.318647974091	266.160797031569	1069.395886654538	562.779712328165	327.567658007623	1066.926006725416	495.500901857451	337.351354963567	1046.706050233207	424.460610412883	329.418741830099	962.410503023000	302.873137335910	287.600059861349	1028.176749736626	198.169047174884	357.487174929665	1152.731757174091	438.239157362841	562.038326677096	1030.749589010327	403.302874151664	624.505521114392	1008.753861895549	297.700731097699	573.042846821863	803.310293566973	243.614214814904	547.959520629737	972.512228801887	183.966708154357	588.002117346527	863.375799604096	186.404175412929	622.112672040291	1034.443423776952	70.558611218925	615.876878683533	914.558127263664	37.551176278464	411.047515364678	985.187486225610	34.722837845401	326.706487975012	1066.875818586689	99.152084591626	348.823401596633	1195.684186114774	52.067629828474	318.398321402232	1068.715594346006	1091.809211339605	128.218403547646	1196.948504837651	864.157832297914	148.497980596283	975.783705716053	1102.634777503567	727.091007466820	1163.342214832557	923.257099805312	695.525496559416	
2	56.781785714286	823.629909039582	1011.377220978161	458.337975328861	1010.551643135923	1430.646752544284	268.248629883938	1110.383955497636	1363.316117889368	431.528551634871	1027.419875902124	1443.810311361438	601.969811494831	1006.448863407517	1496.695148544047	418.665089465673	1051.114931281846	944.794597369324	572.226453467791	1037.508085912661	966.906490723651	298.761054255989	1143.567911316518	789.143001553419	538.967451583778	1117.966967218553	665.385019137696	615.461366041952	1209.980227037493	634.298573438406	534.199144166065	1238.223040008345	519.026662713360	554.467098960715	1078.445241365814	753.681474906950	324.332603078787	983.672022593612	642.275689112762	266.278753316822	1064.962610430336	562.020628198807	328.269903276817	1061.826940533327	494.911575256006	338.143383674755	1041.397408841720	424.065925968957	330.119911898013	956.856855735331	302.884236318023	287.614700463743	1021.532237874607	197.882335284141	358.001720775541	1161.752570298233	442.441616773980	561.741788546381	1042.261797156986	403.330412644470	625.852027430293	1023.685909784384	296.855486195488	574.900934299447	820.590911174309	235.163695341767	552.756577933739	992.023615879338	181.672391686850	590.317113941200	883.579731300843	180.281214545619	626.091197603194	1058.274035425142	70.829950096599	617.281941562220	907.024237111158	37.511929228914	411.131123462945	977.691808024586	34.737009066112	326.779947361206	1059.432360728035	98.946349753979	349.032257444827	1188.199785200608	51.877676215859	318.449101181242	1076.807615235962	1095.805755223787	126.345339419940	1215.742574428012	875.626503530174	149.154009061985	968.263957867682	1102.978758411265	726.652489130314	1135.514877637371	907.995574532588	703.596100826201	
3	56.793571428571	822.599241208894	1011.581871718408	457.745603972336	1011.882544226323	1431.101016779450	268.645070605634	1110.450503833292	1363.166871428175	432.376542347654	1026.653369523696	1443.424113644397	602.493716515437	1007.167116249454	1496.825800876957	419.138029458194	1050.008781351842	945.578722989475	572.320195471674	1037.046964659143	966.975646958020	298.648031099290	1144.245281393413	792.811512461588	537.771026661106	1121.773794560005	668.999682166183	614.950237353557	1213.203341127723	639.203223106674	532.560535392020	1244.408364521533	525.115647111584	552.978463095033	1076.167328826689	752.938149874139	325.118150331656	980.655730740764	642.222244609788	266.395252357103	1060.615010169131	561.258022695843	328.970703870957	1056.822534425982	494.323954421179	338.925320511429	1036.181033351675	423.664653913349	330.810386920657	951.393688207182	302.887286736176	287.623029728654	1014.977231362916	197.590376733110	358.511488661332	1170.584030122046	446.546504571698	561.496838932100	1053.566015799521	403.282438194400	627.183559505443	1038.449449478424	295.949260971407	576.746293296164	837.753226954229	226.665869361524	557.410654507651	1011.363580202495	179.370215940487	592.625799977290	903.601551594195	174.172286967119	629.997781837665	1081.905436015379	71.133606475665	618.779646993039	899.578934550240	37.469504939275	411.211383459536	970.282394683978	34.750280937947	326.852730976138	1052.078051142974	98.743909680741	349.242154442441	1180.802565799368	51.692430461660	318.501077846676	1084.679912571847	1099.742191641430	124.500246486530	1234.193456105801	887.105283723386	149.889418840335	960.913077092866	1103.299690990654	726.216533122999	1107.899380376081	893.396981670396	711.500208606467	
4	56.805357142857	821.677973792488	1011.756791128413	457.190290735233	1013.217257143245	1431.499363744387	269.080220924800	1110.564561603818	1362.974040918935	433.241237821250	1025.977376574390	1442.994315974639	603.046708256736	1007.905818038075	1496.917519521370	419.653996264175	1048.935688460954	946.262350737492	572.431159669864	1036.669599599547	967.011201304867	298.577543088523	1144.804092394862	796.231832300021	536.660430172618	1125.301423568100	672.422138183950	614.542878344948	1216.131125210653	643.802754615585	531.054054051098	1250.168697601405	530.942803244156	551.661128592943	1074.029274128402	752.177822241221	325.901346701098	977.769542857913	642.149862454475	266.512460969659	1056.396235282319	560.484584175517	329.669321401828	1051.960034020159	493.735218909600	339.687485942714	1031.095226667715	423.250122098446	331.481039006626	946.053346675948	302.878584991808	287.618207092994	1008.539087279584	197.289647311046	359.009910652774	1179.044242597486	450.438444367494	561.373520198973	1064.512114878624	403.024149309725	628.503944257581	1052.979177756952	294.891057217322	578.572239400856	854.869658781427	217.980968117992	561.775596818156	1030.521870235492	177.032148205649	594.918216869593	923.453734634335	168.015882894701	633.746864056621	1105.320983197640	71.532124075701	620.437735552559	892.242679996590	37.424864071462	411.284191543105	962.976972812606	34.762715663613	326.923738392092	1044.834421396503	98.546842082448	349.453422542347	1173.511635311645	51.511636804371	318.555363849185	1092.158080304542	1103.569582627568	122.713293306585	1252.021535672259	898.722425217167	150.808108698348	953.822511886961	1103.625423241490	725.816458021748	1080.632852569733	880.123278316592	719.070025002546	
5	56.817142857143	820.911611435433	1011.889982761160	456.678271476845	1014.570295225302	1431.819469154744	269.579881054181	1110.755631046907	1362.718777058167	434.140633709843	1025.435497995826	1442.505011035598	603.650077006617	1008.686506299110	1496.951781319739	420.240959918397	1047.910313325557	946.798872352620	572.575096672630	1036.417254063856	966.999968144781	298.573382369853	1145.193284340625	799.286417400834	535.688419436932	1128.410190526332	675.543658623006	614.293546297153	1218.639847032788	647.948950542608	529.772651681335	1255.324545792432	536.384890859766	550.621002723638	1072.068637498967	751.387186415510	326.681722103620	975.040781886076	642.052623361872	266.633723740259	1052.327034089545	559.693966075310	330.363465006291	1047.262435769307	493.141709427058	340.421259859338	1026.153082505030	422.817395027026	332.124823172195	940.842962937026	302.857115307429	287.594639399155	1002.220859574424	196.978098049126	359.490561776408	1186.988941254798	454.018611613578	561.439779872894	1074.993756922728	402.429099958069	629.822857414149	1067.250672760447	293.601972322351	580.375150307809	872.054679785439	208.977157614241	565.723933635910	1049.532914114674	174.633884609694	597.182466439175	943.197116984122	161.743568934314	637.256220507897	1128.551040047558	72.087044057205	622.300060972401	885.012140440437	37.380318451807	411.345708791477	955.769765370175	34.774431487184	326.991785584423	1037.698708007342	98.356861877750	349.665560749721	1166.322329211304	51.333193271322	318.612875159994	1099.120164688266	1107.250148906960	121.010696959613	1269.015722364844	910.611584726809	151.998609668572	947.037339776432	1104.000443410417	725.493170332523	1053.839612338991	868.711865012446	726.159746834366	
6	56.828928571429	820.331266825361	1011.973570017101	456.208167724607	1015.956239852078	1432.046673418850	270.166835154127	1111.049455063147	1362.389219633136	435.091806647163	1025.061431085924	1441.948902896499	604.321426831557	1009.530371604313	1496.914444757493	420.922988875396	1046.946071516923	947.152874514995	572.768404096697	1036.322219336894	966.933897375627	298.655664270676	1145.377056177042	801.879897691144	534.903998478746	1130.983501102155	678.264146734784	614.245136142402	1220.642006797870	651.519195223686	528.808070725924	1259.743752486765	541.336845281566	549.956208139041	1070.299165093648	750.555020730328	327.456364590397	972.475488046417	641.928151171393	266.763301229820	1048.409103706895	558.882594725018	331.048467118232	1042.732309079617	492.539975904865	341.118963501789	1021.347729451034	422.364804031540	332.736335980052	935.750422236894	302.824987461257	287.548866812845	996.009432905800	196.656065051966	359.946879458895	1194.309682763627	457.205683019496	561.753686816400	1084.941616684321	401.389341998156	631.152928761943	1081.259064801120	292.023720994154	582.150872827546	889.427941700042	199.557084224629	569.154166186118	1068.442093218384	172.159845290972	599.400801417576	962.905969972168	155.294389824984	640.448569689853	1151.632430254663	72.851294725704	624.374029814167	877.870275084006	37.339791042973	411.392744130141	948.641970470102	34.785751828115	327.055526362157	1030.653970637917	98.175159318898	349.876946205965	1159.216656726622	51.153310642047	318.674014417488	1105.498378591710	1110.754362658376	119.415851304346	1285.025362703166	922.880043220227	153.523443350646	940.561470014110	1104.483806824147	725.293992476961	1027.666927239778	859.535467798948	732.649097470417	
